<?xml version="1.0" encoding="utf-8" ?>
<svg baseProfile="full" height="1000" version="1.1" width="1000" xmlns="http://www.w3.org/2000/svg" xmlns:ev="http://www.w3.org/2001/xml-events" xmlns:xlink="http://www.w3.org/1999/xlink"><defs /><polygon fill="red" points="119.08541385105656,707.2906108157857 110.28856829700266,722.4700872593979 152.28033422947456,707.2906108157857" stroke="red" /><polygon fill="red" points="152.28033422947456,707.2906108157857 178.67087089163624,722.4700872593979 110.28856829700266,722.4700872593979" stroke="red" /><polygon fill="red" points="152.28033422947456,707.2906108157857 178.67087089163624,722.4700872593979 135.68287404026557,673.5908877238081" stroke="red" /><polygon fill="red" points="135.68287404026557,673.5908877238081 153.27656514837335,673.5908877238081 178.67087089163624,722.4700872593979" stroke="red" /><polygon fill="red" points="135.68287404026557,673.5908877238081 153.27656514837335,673.5908877238081 195.26833108084526,575.8324886526285" stroke="red" /><polygon fill="red" points="195.26833108084526,575.8324886526285 195.26833108084526,606.1914415398531 153.27656514837335,673.5908877238081" stroke="red" /><polygon fill="red" points="195.26833108084526,575.8324886526285 195.26833108084526,606.1914415398531 254.85378812142494,673.5908877238081" stroke="red" /><polygon fill="red" points="254.85378812142494,673.5908877238081 237.26009701331714,673.5908877238081 195.26833108084526,606.1914415398531" stroke="red" /><polygon fill="red" points="254.85378812142494,673.5908877238081 237.26009701331714,673.5908877238081 238.25632793221592,707.2906108157857" stroke="red" /><polygon fill="red" points="238.25632793221592,707.2906108157857 211.86579127005422,722.4700872593979 237.26009701331714,673.5908877238081" stroke="red" /><polygon fill="red" points="238.25632793221592,707.2906108157857 211.86579127005422,722.4700872593979 317.84143702013273,709.8205235563877" stroke="red" /><polygon fill="red" points="317.84143702013273,709.8205235563877 326.63828257418663,725.0 211.86579127005422,722.4700872593979" stroke="red" /><polygon fill="red" points="317.84143702013273,709.8205235563877 326.63828257418663,725.0 347.6341655404226,663.4712367614" stroke="red" /><polygon fill="red" points="347.6341655404226,663.4712367614 347.6341655404226,693.8301896486246 326.63828257418663,725.0" stroke="red" /><polygon fill="red" points="347.6341655404226,663.4712367614 347.6341655404226,693.8301896486246 377.42689406071247,709.8205235563877" stroke="red" /><polygon fill="red" points="377.42689406071247,709.8205235563877 368.6300485066585,725.0 347.6341655404226,693.8301896486246" stroke="red" /><polygon fill="red" points="377.42689406071247,709.8205235563877 368.6300485066585,725.0 457.01200314862933,707.2906108157857" stroke="red" /><polygon fill="red" points="457.01200314862933,707.2906108157857 483.40253981079104,722.4700872593979 368.6300485066585,725.0" stroke="red" /><polygon fill="red" points="457.01200314862933,707.2906108157857 483.40253981079104,722.4700872593979 419.4186599931843,637.3612518912286" stroke="red" /><polygon fill="red" points="419.4186599931843,637.3612518912286 428.21550554723825,622.1817754476162 483.40253981079104,722.4700872593979" stroke="red" /><polygon fill="red" points="419.4186599931843,637.3612518912286 428.21550554723825,622.1817754476162 364.2316257296316,634.8313391506265" stroke="red" /><polygon fill="red" points="364.2316257296316,634.8313391506265 390.62216239179327,619.6518627070142 428.21550554723825,622.1817754476162" stroke="red" /><polygon fill="red" points="364.2316257296316,634.8313391506265 390.62216239179327,619.6518627070142 389.6259314728945,585.9521396150367" stroke="red" /><polygon fill="red" points="389.6259314728945,585.9521396150367 407.2196225810023,585.9521396150367 390.62216239179327,619.6518627070142" stroke="red" /><polygon fill="red" points="389.6259314728945,585.9521396150367 407.2196225810023,585.9521396150367 347.6341655404226,518.5526934310817" stroke="red" /><polygon fill="red" points="347.6341655404226,518.5526934310817 347.6341655404226,488.193740543857 407.2196225810023,585.9521396150367" stroke="red" /><polygon fill="red" points="347.6341655404226,518.5526934310817 347.6341655404226,488.193740543857 326.63828257418663,549.7225037824571" stroke="red" /><polygon fill="red" points="326.63828257418663,549.7225037824571 317.84143702013273,534.5430273388448 347.6341655404226,488.193740543857" stroke="red" /><polygon fill="red" points="326.63828257418663,549.7225037824571 317.84143702013273,534.5430273388448 211.86579127005422,547.192591041855" stroke="red" /><polygon fill="red" points="211.86579127005422,547.192591041855 238.25632793221587,532.0131145982427 317.84143702013273,534.5430273388448" stroke="red" /><polygon fill="red" points="211.86579127005422,547.192591041855 238.25632793221587,532.0131145982427 267.05282553360695,446.90427923007337" stroke="red" /><polygon fill="red" points="267.05282553360695,446.90427923007337 275.8496710876608,462.0837556736857 238.25632793221587,532.0131145982427" stroke="red" /><polygon fill="red" points="267.05282553360695,446.90427923007337 275.8496710876608,462.0837556736857 304.6461686890518,444.37436648947136" stroke="red" /><polygon fill="red" points="304.6461686890518,444.37436648947136 331.0367053512135,459.5538429330837 275.8496710876608,462.0837556736857" stroke="red" /><polygon fill="red" points="304.6461686890518,444.37436648947136 331.0367053512135,459.5538429330837 288.04870849984286,410.67464339749375" stroke="red" /><polygon fill="red" points="288.04870849984286,410.67464339749375 305.64239960795067,410.67464339749375 331.0367053512135,459.5538429330837" stroke="red" /><polygon fill="red" points="288.04870849984286,410.67464339749375 305.64239960795067,410.67464339749375 347.63416554042254,312.9162443263142" stroke="red" /><polygon fill="red" points="347.63416554042254,312.9162443263142 347.63416554042254,343.2751972135388 305.64239960795067,410.67464339749375" stroke="red" /><polygon fill="red" points="347.63416554042254,312.9162443263142 347.63416554042254,343.2751972135388 377.4268940607124,359.26553112130193" stroke="red" /><polygon fill="red" points="377.4268940607124,359.26553112130193 368.6300485066585,374.44500756491425 347.63416554042254,343.2751972135388" stroke="red" /><polygon fill="red" points="377.4268940607124,359.26553112130193 368.6300485066585,374.44500756491425 457.01200314862933,356.73561838069986" stroke="red" /><polygon fill="red" points="457.01200314862933,356.73561838069986 483.40253981079104,371.9150948243122 368.6300485066585,374.44500756491425" stroke="red" /><polygon fill="red" points="457.01200314862933,356.73561838069986 483.40253981079104,371.9150948243122 419.4186599931843,286.8062594561428" stroke="red" /><polygon fill="red" points="419.4186599931843,286.8062594561428 428.21550554723825,271.6267830125305 483.40253981079104,371.9150948243122" stroke="red" /><polygon fill="red" points="419.4186599931843,286.8062594561428 428.21550554723825,271.6267830125305 364.2316257296316,284.2763467155408" stroke="red" /><polygon fill="red" points="364.2316257296316,284.2763467155408 390.62216239179327,269.0968702719285 428.21550554723825,271.6267830125305" stroke="red" /><polygon fill="red" points="364.2316257296316,284.2763467155408 390.62216239179327,269.0968702719285 419.4186599931843,183.98803490375914" stroke="red" /><polygon fill="red" points="419.4186599931843,183.98803490375914 428.21550554723825,199.16751134737143 390.62216239179327,269.0968702719285" stroke="red" /><polygon fill="red" points="419.4186599931843,183.98803490375914 428.21550554723825,199.16751134737143 457.01200314862933,181.4581221631571" stroke="red" /><polygon fill="red" points="457.01200314862933,181.4581221631571 483.40253981079104,196.6375986067694 428.21550554723825,199.16751134737143" stroke="red" /><polygon fill="red" points="457.01200314862933,181.4581221631571 483.40253981079104,196.6375986067694 440.4145429594203,147.7583990711796" stroke="red" /><polygon fill="red" points="440.4145429594203,147.7583990711796 458.0082340675281,147.7583990711796 483.40253981079104,196.6375986067694" stroke="red" /><polygon fill="red" points="440.4145429594203,147.7583990711796 458.0082340675281,147.7583990711796 500.0,50.0" stroke="red" /><polygon fill="red" points="500.0,50.0 500.0,80.3589528872246 458.0082340675281,147.7583990711796" stroke="red" /><polygon fill="red" points="500.0,50.0 500.0,80.3589528872246 559.5854570405797,147.7583990711796" stroke="red" /><polygon fill="red" points="559.5854570405797,147.7583990711796 541.9917659324719,147.7583990711796 500.0,80.3589528872246" stroke="red" /><polygon fill="red" points="559.5854570405797,147.7583990711796 541.9917659324719,147.7583990711796 542.9879968513707,181.4581221631571" stroke="red" /><polygon fill="red" points="542.9879968513707,181.4581221631571 516.597460189209,196.6375986067694 541.9917659324719,147.7583990711796" stroke="red" /><polygon fill="red" points="542.9879968513707,181.4581221631571 516.597460189209,196.6375986067694 580.5813400068156,183.98803490375914" stroke="red" /><polygon fill="red" points="580.5813400068156,183.98803490375914 571.7844944527617,199.16751134737143 516.597460189209,196.6375986067694" stroke="red" /><polygon fill="red" points="580.5813400068156,183.98803490375914 571.7844944527617,199.16751134737143 635.7683742703684,284.2763467155408" stroke="red" /><polygon fill="red" points="635.7683742703684,284.2763467155408 609.3778376082067,269.0968702719285 571.7844944527617,199.16751134737143" stroke="red" /><polygon fill="red" points="635.7683742703684,284.2763467155408 609.3778376082067,269.0968702719285 580.5813400068156,286.8062594561428" stroke="red" /><polygon fill="red" points="580.5813400068156,286.8062594561428 571.7844944527617,271.6267830125305 609.3778376082067,269.0968702719285" stroke="red" /><polygon fill="red" points="580.5813400068156,286.8062594561428 571.7844944527617,271.6267830125305 542.9879968513707,356.73561838069986" stroke="red" /><polygon fill="red" points="542.9879968513707,356.73561838069986 516.597460189209,371.9150948243122 571.7844944527617,271.6267830125305" stroke="red" /><polygon fill="red" points="542.9879968513707,356.73561838069986 516.597460189209,371.9150948243122 622.5731059392876,359.26553112130193" stroke="red" /><polygon fill="red" points="622.5731059392876,359.26553112130193 631.3699514933414,374.44500756491425 516.597460189209,371.9150948243122" stroke="red" /><polygon fill="red" points="622.5731059392876,359.26553112130193 631.3699514933414,374.44500756491425 652.3658344595774,312.9162443263142" stroke="red" /><polygon fill="red" points="652.3658344595774,312.9162443263142 652.3658344595774,343.2751972135388 631.3699514933414,374.44500756491425" stroke="red" /><polygon fill="red" points="652.3658344595774,312.9162443263142 652.3658344595774,343.2751972135388 711.9512915001571,410.67464339749375" stroke="red" /><polygon fill="red" points="711.9512915001571,410.67464339749375 694.3576003920493,410.67464339749375 652.3658344595774,343.2751972135388" stroke="red" /><polygon fill="red" points="711.9512915001571,410.67464339749375 694.3576003920493,410.67464339749375 695.353831310948,444.3743664894713" stroke="red" /><polygon fill="red" points="695.353831310948,444.3743664894713 668.9632946487864,459.55384293308356 694.3576003920493,410.67464339749375" stroke="red" /><polygon fill="red" points="695.353831310948,444.3743664894713 668.9632946487864,459.55384293308356 732.9471744663929,446.9042792300733" stroke="red" /><polygon fill="red" points="732.9471744663929,446.9042792300733 724.1503289123391,462.08375567368563 668.9632946487864,459.55384293308356" stroke="red" /><polygon fill="red" points="732.9471744663929,446.9042792300733 724.1503289123391,462.08375567368563 788.1342087299456,547.1925910418549" stroke="red" /><polygon fill="red" points="788.1342087299456,547.1925910418549 761.743672067784,532.0131145982427 724.1503289123391,462.08375567368563" stroke="red" /><polygon fill="red" points="788.1342087299456,547.1925910418549 761.743672067784,532.0131145982427 673.3617174258134,549.722503782457" stroke="red" /><polygon fill="red" points="673.3617174258134,549.722503782457 682.1585629798672,534.5430273388447 761.743672067784,532.0131145982427" stroke="red" /><polygon fill="red" points="673.3617174258134,549.722503782457 682.1585629798672,534.5430273388447 652.3658344595774,518.5526934310816" stroke="red" /><polygon fill="red" points="652.3658344595774,518.5526934310816 652.3658344595774,488.19374054385696 682.1585629798672,534.5430273388447" stroke="red" /><polygon fill="red" points="652.3658344595774,518.5526934310816 652.3658344595774,488.19374054385696 610.3740685271055,585.9521396150366" stroke="red" /><polygon fill="red" points="610.3740685271055,585.9521396150366 592.7803774189977,585.9521396150366 652.3658344595774,488.19374054385696" stroke="red" /><polygon fill="red" points="610.3740685271055,585.9521396150366 592.7803774189977,585.9521396150366 635.7683742703684,634.8313391506265" stroke="red" /><polygon fill="red" points="635.7683742703684,634.8313391506265 609.3778376082067,619.6518627070142 592.7803774189977,585.9521396150366" stroke="red" /><polygon fill="red" points="635.7683742703684,634.8313391506265 609.3778376082067,619.6518627070142 580.5813400068156,637.3612518912284" stroke="red" /><polygon fill="red" points="580.5813400068156,637.3612518912284 571.7844944527617,622.1817754476161 609.3778376082067,619.6518627070142" stroke="red" /><polygon fill="red" points="580.5813400068156,637.3612518912284 571.7844944527617,622.1817754476161 542.9879968513707,707.2906108157855" stroke="red" /><polygon fill="red" points="542.9879968513707,707.2906108157855 516.597460189209,722.4700872593978 571.7844944527617,622.1817754476161" stroke="red" /><polygon fill="red" points="542.9879968513707,707.2906108157855 516.597460189209,722.4700872593978 622.5731059392876,709.8205235563876" stroke="red" /><polygon fill="red" points="622.5731059392876,709.8205235563876 631.3699514933414,724.9999999999999 516.597460189209,722.4700872593978" stroke="red" /><polygon fill="red" points="622.5731059392876,709.8205235563876 631.3699514933414,724.9999999999999 652.3658344595774,663.4712367613998" stroke="red" /><polygon fill="red" points="652.3658344595774,663.4712367613998 652.3658344595774,693.8301896486245 631.3699514933414,724.9999999999999" stroke="red" /><polygon fill="red" points="652.3658344595774,663.4712367613998 652.3658344595774,693.8301896486245 682.1585629798672,709.8205235563876" stroke="red" /><polygon fill="red" points="682.1585629798672,709.8205235563876 673.3617174258134,724.9999999999999 652.3658344595774,693.8301896486245" stroke="red" /><polygon fill="red" points="682.1585629798672,709.8205235563876 673.3617174258134,724.9999999999999 761.743672067784,707.2906108157855" stroke="red" /><polygon fill="red" points="761.743672067784,707.2906108157855 788.1342087299456,722.4700872593978 673.3617174258134,724.9999999999999" stroke="red" /><polygon fill="red" points="761.743672067784,707.2906108157855 788.1342087299456,722.4700872593978 745.1462118785751,673.590887723808" stroke="red" /><polygon fill="red" points="745.1462118785751,673.590887723808 762.7399029866829,673.590887723808 788.1342087299456,722.4700872593978" stroke="red" /><polygon fill="red" points="745.1462118785751,673.590887723808 762.7399029866829,673.590887723808 804.7316689191546,575.8324886526284" stroke="red" /><polygon fill="red" points="804.7316689191546,575.8324886526284 804.7316689191546,606.1914415398529 762.7399029866829,673.590887723808" stroke="red" /><polygon fill="red" points="804.7316689191546,575.8324886526284 804.7316689191546,606.1914415398529 864.3171259597343,673.590887723808" stroke="red" /><polygon fill="red" points="864.3171259597343,673.590887723808 846.7234348516265,673.590887723808 804.7316689191546,606.1914415398529" stroke="red" /><polygon fill="red" points="864.3171259597343,673.590887723808 846.7234348516265,673.590887723808 847.7196657705254,707.2906108157855" stroke="red" /><polygon fill="red" points="847.7196657705254,707.2906108157855 821.3291291083638,722.4700872593978 846.7234348516265,673.590887723808" stroke="red" /><polygon fill="red" points="847.7196657705254,707.2906108157855 821.3291291083638,722.4700872593978 880.9145861489433,707.2906108157855" stroke="red" /><polygon fill="red" points="880.9145861489433,707.2906108157855 889.7114317029973,722.4700872593978 821.3291291083638,722.4700872593978" stroke="red" /></svg>